<?xml version="1.0" ?><svg height="288px" width="288px" viewBox="0 0 288 288" xmlns="http://www.w3.org/2000/svg"><path d="M144 160l-30 110c-4 15-28 9-24-6l43-150c-8-4-13-12-13-21 0-13 10-24 24-24s24 11 24 24c0 9-5 17-13 21l43 150c4 15-20 21-24 6zM23 15c9-14 29-1 20 13-25 39-26 89 0 130 8 13-11 27-20 13C8 148 0 121 0 93s8-55 23-78zm52 30c9-13 29 0 19 15-14 20-13 47 1 67 9 13-11 26-20 14-20-29-20-67 0-96zm190-30c15 23 23 50 23 78s-8 55-23 78c-9 14-28 0-20-13 26-41 25-91 0-130-9-14 11-27 20-13zm-52 30c20 29 20 67 0 96-9 12-29-1-20-14 14-20 15-47 1-67-10-15 10-28 19-15z" fill="#fff"/></svg>